<?xml version="1.0" encoding="UTF-8"?>
<svg version="1.1" xmlns="http://www.w3.org/2000/svg" width="1700" height="918">
<path d="M0 0 C0.94285355 -0.00540298 1.88570709 -0.01080597 2.85713196 -0.01637268 C5.94146124 -0.02877379 9.02484128 -0.01242761 12.10913086 0.00561523 C14.27046253 0.00546006 16.43179448 0.00396802 18.59312439 0.00120544 C23.10940952 -0.00017465 27.62537557 0.01231546 32.14160156 0.03515625 C37.91375557 0.06355641 43.68538063 0.06079351 49.45757389 0.04806614 C53.91613742 0.0410928 58.37457991 0.0489169 62.83312798 0.06132317 C64.96086601 0.06582036 67.08861712 0.0661897 69.21635628 0.06225777 C72.19528731 0.05932886 75.17350337 0.0759322 78.15234375 0.09765625 C79.45480042 0.09090378 79.45480042 0.09090378 80.78356934 0.08401489 C87.27616344 0.16219869 93.91190472 1.04146106 99.13256836 5.18530273 C99.56698242 5.7640918 100.00139648 6.34288086 100.44897461 6.93920898 C100.90143555 7.51541992 101.35389648 8.09163086 101.82006836 8.68530273 C104.6836351 13.05106842 105.42880068 16.78724369 105.79272461 21.96655273 C105.88029526 23.07324814 105.88029526 23.07324814 105.96963501 24.20230103 C106.15830191 26.61405877 106.33496568 29.02653366 106.51147461 31.43920898 C106.63956327 33.10389166 106.76831212 34.76852366 106.89770508 36.43310547 C107.50892542 44.37249202 108.07522543 52.31484524 108.61303711 60.25952148 C108.68134735 61.26635735 108.68134735 61.26635735 108.7510376 62.29353333 C108.96293424 65.43339687 109.16835823 68.57349526 109.36499023 71.71435547 C109.47230469 73.37446655 109.47230469 73.37446655 109.58178711 75.06811523 C109.64124512 76.02661377 109.70070313 76.9851123 109.76196289 77.97265625 C109.84430176 78.80724365 109.92664063 79.64183105 110.01147461 80.50170898 C110.06464844 81.227854 110.11782227 81.95399902 110.17260742 82.70214844 C110.90955452 84.77744692 110.90955452 84.77744692 113.51391602 85.71508789 C115.17173096 86.21661377 115.17173096 86.21661377 116.86303711 86.72827148 C118.09658936 87.11547363 119.3301416 87.50267578 120.60107422 87.90161133 C121.25961395 88.10115417 121.91815369 88.30069702 122.59664917 88.50628662 C126.03352776 89.55162918 129.45092831 90.65597326 132.86694336 91.76733398 C133.55609329 91.99129852 134.24524323 92.21526306 134.95527649 92.4460144 C141.43435967 94.58333457 147.70676539 97.12343222 153.94897461 99.87670898 C154.86952637 100.28099121 155.79007813 100.68527344 156.73852539 101.10180664 C161.66961849 103.31623698 166.36806313 105.7346148 171.01147461 108.50170898 C170.58426969 113.71360897 168.73715233 116.68305254 165.44897461 120.56420898 C164.43923924 121.80222649 163.43155326 123.04191733 162.42553711 124.28295898 C161.60230957 125.29229492 161.60230957 125.29229492 160.76245117 126.32202148 C157.53476029 130.33998358 154.43703151 134.45723571 151.32397461 138.56420898 C149.96335473 140.35331499 148.60267672 142.14237678 147.24194336 143.93139648 C145.0818103 146.77487301 142.92249643 149.61896765 140.76391602 152.46362305 C139.2717419 154.4298046 137.77899825 156.39555407 136.28564453 158.36083984 C134.87689839 160.2147901 133.46946117 162.06973585 132.06347656 163.92578125 C131.43014404 164.75907959 130.79681152 165.59237793 130.14428711 166.45092773 C129.58628418 167.18657959 129.02828125 167.92223145 128.45336914 168.68017578 C127.01147461 170.50170898 127.01147461 170.50170898 125.01147461 172.50170898 C120.13610768 172.09388361 115.45140283 169.91678706 110.88647461 168.25170898 C94.87177397 162.55590209 78.87158066 158.66637343 62.01147461 156.50170898 C60.98151367 156.36893555 59.95155273 156.23616211 58.89038086 156.09936523 C4.6657463 150.48461584 -50.35902932 168.41433929 -92.43774414 202.51342773 C-133.79138251 236.84191603 -161.49898369 287.01883973 -166.82519531 340.81176758 C-167.23836273 347.61636932 -167.23353382 354.43677238 -167.23852539 361.25170898 C-167.23920013 362.07840088 -167.23987488 362.90509277 -167.24057007 363.75683594 C-167.22396585 376.57219238 -166.62913229 388.92503894 -163.98852539 401.50170898 C-163.82223633 402.33943848 -163.65594727 403.17716797 -163.48461914 404.0402832 C-155.58779719 443.18073498 -136.49777013 477.77674222 -108.98852539 506.50170898 C-108.51688965 507.00057617 -108.04525391 507.49944336 -107.55932617 508.01342773 C-99.97369415 516.00749711 -91.88725331 523.00364716 -82.98852539 529.50170898 C-82.42359375 529.91630371 -81.85866211 530.33089844 -81.27661133 530.75805664 C-56.94580257 548.36753182 -29.22520996 559.33318878 0.01147461 565.50170898 C1.26154297 565.77072021 1.26154297 565.77072021 2.53686523 566.04516602 C40.50133625 573.83453487 83.14197314 568.56867296 118.52319336 553.34936523 C123.01826922 551.81807566 123.01826922 551.81807566 126.01147461 552.50170898 C128.29820494 554.63739378 130.02174263 557.14230183 131.82397461 559.68920898 C132.97965565 561.261242 134.13593232 562.83283726 135.29272461 564.40405273 C135.89858398 565.23791504 136.50444336 566.07177734 137.12866211 566.9309082 C139.64879991 570.37191586 142.23583686 573.75924878 144.82885742 577.14550781 C146.84075818 579.77363319 148.84010178 582.41101538 150.83959961 585.04858398 C153.72573151 588.84265061 156.65844135 592.59505688 159.62084961 596.32983398 C160.36616943 597.27955078 161.11148926 598.22926758 161.87939453 599.20776367 C163.31526122 601.03578219 164.76293864 602.85460028 166.22363281 604.6628418 C167.18789185 605.8979248 167.18789185 605.8979248 168.17163086 607.15795898 C169.03220093 608.23787109 169.03220093 608.23787109 169.91015625 609.33959961 C171.01147461 611.50170898 171.01147461 611.50170898 170.86987305 614.15087891 C169.76025155 617.18971436 168.08292389 617.98176124 165.25341797 619.37890625 C164.57545166 619.68755615 163.89748535 619.99620605 163.19897461 620.31420898 C162.48684814 620.65186279 161.77472168 620.9895166 161.04101562 621.33740234 C158.71056838 622.42333597 156.36600422 623.46908778 154.01147461 624.50170898 C153.23739258 624.84137695 152.46331055 625.18104492 151.66577148 625.53100586 C138.43737477 631.24102632 124.84715388 635.5249868 111.01147461 639.50170898 C110.23076796 643.05571766 109.7979272 646.49750738 109.5625 650.12719727 C109.48894791 651.23249786 109.41539581 652.33779846 109.33961487 653.47659302 C109.26355515 654.66308441 109.18749542 655.84957581 109.10913086 657.07202148 C108.93936972 659.60328227 108.76944255 662.13453192 108.59936523 664.66577148 C108.33599644 668.64153782 108.07457914 672.61739861 107.81640625 676.59350586 C107.5652917 680.44089675 107.30639769 684.28770641 107.04663086 688.13452148 C106.97259537 689.30886749 106.89855988 690.4832135 106.82228088 691.69314575 C105.34783866 713.30326322 105.34783866 713.30326322 99.01147461 719.50170898 C93.1398978 723.57272605 87.64904388 724.0798941 80.66748047 724.01928711 C79.16103722 724.02980103 79.16103722 724.02980103 77.62416077 724.04052734 C74.32459366 724.05804522 71.02589327 724.04650708 67.72631836 724.03295898 C65.42281429 724.03565546 63.11931134 724.03953917 60.81581116 724.04455566 C55.99672571 724.05044215 51.17793752 724.04191404 46.35888672 724.02319336 C40.18956594 724.0003919 34.02094082 724.01354046 27.85164547 724.03748322 C23.09805582 724.05195298 18.3446305 724.04732992 13.59103584 724.03697205 C11.31650268 724.03430871 9.04195448 724.03756065 6.76743889 724.04689026 C3.58658313 724.0570763 0.40684683 724.04152547 -2.77392578 724.01928711 C-3.7086673 724.02738403 -4.64340881 724.03548096 -5.60647583 724.04382324 C-12.31911566 723.95710813 -16.5904679 722.54207621 -21.69555664 717.97436523 C-25.87555159 712.64228687 -27.20095795 708.40957351 -27.67456055 701.69189453 C-27.72362045 701.0279216 -27.77268036 700.36394867 -27.82322693 699.67985535 C-27.98238992 697.49985618 -28.13005746 695.31924235 -28.27758789 693.13842773 C-28.3861208 691.62094617 -28.49537394 690.10351597 -28.60531616 688.58613586 C-28.89195639 684.60329715 -29.16883583 680.61983826 -29.44366455 676.63616943 C-29.72614553 672.56683959 -30.01788494 668.49817467 -30.30883789 664.42944336 C-30.87777951 656.45415241 -31.43640759 648.4781822 -31.98852539 640.50170898 C-36.34813411 638.84641779 -40.68566272 637.226863 -45.14086914 635.84545898 C-64.15779756 629.81606331 -83.28241192 622.83937138 -100.13305664 611.96679688 C-102.8360709 610.29744369 -104.36542461 609.39186143 -107.55883789 609.95483398 C-110.55582286 611.86288229 -113.07436853 614.10219956 -115.61352539 616.56420898 C-119.46330356 620.19984622 -123.35286914 623.68719028 -127.48852539 627.00170898 C-131.46486837 630.2010654 -135.25478237 633.52797091 -138.98852539 637.00170898 C-159.99356761 656.50541837 -159.99356761 656.50541837 -169.17602539 656.81420898 C-169.89145508 656.8515918 -170.60688477 656.88897461 -171.34399414 656.92749023 C-178.83457381 655.72147371 -184.11628115 650.95878389 -189.27490234 645.73291016 C-189.95400162 645.06082016 -190.63310089 644.38873016 -191.33277893 643.6962738 C-193.5575705 641.48897699 -195.76753765 639.26750276 -197.97680664 637.04467773 C-199.5270195 635.49716189 -201.07782551 633.95024004 -202.62919617 632.40388489 C-205.87083155 629.1681328 -209.10515698 625.92529207 -212.33447266 622.67724609 C-216.46796218 618.52094943 -220.61917671 614.38289535 -224.77602863 610.24997997 C-227.97891423 607.06156721 -231.17218856 603.86366536 -234.36266136 600.66283607 C-235.88950469 599.1333306 -237.41930794 597.60677385 -238.95214272 596.08327293 C-241.094314 593.95129301 -243.22319108 591.80685086 -245.34912109 589.65869141 C-245.9803186 589.03559082 -246.61151611 588.41249023 -247.26184082 587.77050781 C-251.92586839 583.01602089 -255.41288221 578.01695127 -255.42602539 571.06420898 C-255.04730959 562.44114147 -250.08656743 557.19986157 -244.40649414 551.13061523 C-242.02459613 548.54092644 -239.81350772 545.87174977 -237.61352539 543.12670898 C-234.36900918 539.11345723 -231.00117301 535.27743978 -227.48852539 531.50170898 C-223.15240174 526.83901535 -219.05122899 522.03594502 -215.05883789 517.07202148 C-212.73478012 514.18668184 -210.36603118 511.34311834 -207.98852539 508.50170898 C-208.47321289 507.54393555 -208.95790039 506.58616211 -209.45727539 505.59936523 C-211.27427509 501.99742785 -213.07349301 498.38689667 -214.86401367 494.77172852 C-215.57620432 493.3340497 -216.29046613 491.89739347 -217.00756836 490.4621582 C-225.44507553 473.49859432 -232.09864024 455.74041182 -237.11352539 437.47436523 C-237.68988858 434.64079087 -237.68988858 434.64079087 -238.98852539 433.50170898 C-241.05989116 433.28020962 -243.13824236 433.12382139 -245.21728516 432.99267578 C-245.86782364 432.95018707 -246.51836212 432.90769836 -247.18861389 432.86392212 C-248.60664287 432.77153216 -250.02479807 432.68106468 -251.44305611 432.59226036 C-253.6931069 432.45009528 -255.94250725 432.30016816 -258.19187927 432.1476593 C-264.58953767 431.71418162 -270.98742033 431.28575436 -277.38720703 430.88476562 C-281.29925304 430.63908033 -285.20986044 430.37649788 -289.1200695 430.10318947 C-290.60627473 430.00249711 -292.09291475 429.90801048 -293.57992744 429.82004356 C-302.46998118 429.29134233 -310.07956691 428.83314294 -317.04711914 422.68530273 C-317.5021582 422.1090918 -317.95719727 421.53288086 -318.42602539 420.93920898 C-318.89911133 420.36041992 -319.37219727 419.78163086 -319.85961914 419.18530273 C-321.82632741 416.25225338 -322.11627176 413.67274263 -322.13569641 410.24653625 C-322.14285172 409.37890152 -322.15000702 408.51126678 -322.15737915 407.61734009 C-322.16006805 406.66821747 -322.16275696 405.71909485 -322.16552734 404.74121094 C-322.17209854 403.73925186 -322.17866974 402.73729279 -322.18544006 401.70497131 C-322.20517823 398.38331021 -322.21683754 395.06169435 -322.22680664 391.73999023 C-322.23088217 390.60534018 -322.2349577 389.47069012 -322.23915672 388.30165672 C-322.26002075 382.29485633 -322.27432044 376.2880788 -322.28369141 370.28125 C-322.2947499 364.0816952 -322.32914281 357.8824999 -322.36886311 351.68307209 C-322.39503054 346.91232137 -322.40338344 342.14165624 -322.40697289 337.37084007 C-322.41183933 335.08594526 -322.42345489 332.80105428 -322.44201088 330.51622963 C-322.46640174 327.31359152 -322.46543688 324.11188257 -322.45849609 320.90917969 C-322.47130615 319.97017822 -322.48411621 319.03117676 -322.49731445 318.0637207 C-322.44241444 311.09245459 -320.82788216 305.81005246 -316.24438477 300.46948242 C-308.75849806 295.15136781 -300.3286084 295.21538957 -291.48852539 294.75170898 C-289.81242941 294.64427219 -288.13648423 294.53445855 -286.46069336 294.42236328 C-282.1584665 294.14081925 -277.85502702 293.89080991 -273.55041504 293.64886475 C-269.41662111 293.4114183 -265.28472291 293.14512032 -261.15258789 292.88061523 C-253.43285632 292.39090743 -245.71167646 291.93457225 -237.98852539 291.50170898 C-237.81401855 290.76307617 -237.63951172 290.02444336 -237.4597168 289.26342773 C-232.57030938 269.07738897 -225.05248282 249.42614335 -215.12524414 231.17358398 C-214.6545752 230.30636719 -214.18390625 229.43915039 -213.69897461 228.5456543 C-212.78625168 226.88470898 -211.85750464 225.23244118 -210.91088867 223.59057617 C-210.4995166 222.8496875 -210.08814453 222.10879883 -209.66430664 221.34545898 C-209.29217041 220.69770508 -208.92003418 220.04995117 -208.53662109 219.38256836 C-207.77819145 217.46391266 -207.77819145 217.46391266 -208.71362305 215.46899414 C-209.94531393 213.56838802 -211.21863234 211.88349274 -212.71118164 210.18139648 C-213.24517578 209.56876953 -213.77916992 208.95614258 -214.3293457 208.32495117 C-214.8975 207.68203125 -215.4656543 207.03911133 -216.05102539 206.37670898 C-216.92839355 205.37365723 -216.92839355 205.37365723 -217.82348633 204.3503418 C-221.09447047 200.61951584 -224.40236619 196.92443646 -227.73852539 193.25170898 C-231.54199412 189.06027259 -235.10390908 184.70641661 -238.65258789 180.29858398 C-241.10250273 177.36524113 -243.6807899 174.59580795 -246.30102539 171.81420898 C-252.37038631 165.15018285 -255.39674188 160.29368876 -255.51977539 151.18920898 C-254.04420079 143.7245375 -249.57953562 138.50880082 -244.2956543 133.30712891 C-243.63171158 132.6377832 -242.96776886 131.9684375 -242.28370667 131.27880859 C-240.10392902 129.08660501 -237.91007774 126.90914135 -235.71508789 124.73217773 C-234.18752397 123.20445871 -232.66062781 121.67607173 -231.1343689 120.14704895 C-227.94134279 116.95264168 -224.74148334 113.76529307 -221.53637695 110.58300781 C-217.43330695 106.50835708 -213.34602608 102.41829031 -209.26351357 98.32305431 C-206.11554728 95.16812708 -202.96024481 92.02062197 -199.80259323 88.87539101 C-198.29268679 87.36999242 -196.78485501 85.86250993 -195.27916336 84.35289574 C-193.17343308 82.24424838 -191.05823179 80.14558313 -188.94018555 78.04931641 C-188.32284042 77.42746964 -187.7054953 76.80562286 -187.06944275 76.16493225 C-182.01318159 71.19456583 -177.4402109 68.07392607 -170.11352539 68.06420898 C-169.14672852 68.04487305 -168.17993164 68.02553711 -167.18383789 68.00561523 C-159.63017808 69.17837171 -154.47130212 73.45509629 -149.17602539 78.68920898 C-147.95582938 79.85974775 -146.73315018 81.02770324 -145.50805664 82.19311523 C-144.91202637 82.76046387 -144.31599609 83.3278125 -143.7019043 83.91235352 C-141.34487478 86.09876876 -138.87303812 88.11837246 -136.36352539 90.12670898 C-132.42951166 93.27622731 -128.67754408 96.57124702 -124.98852539 100.00170898 C-121.05141038 103.63410164 -117.10380725 107.24836466 -113.05102539 110.75170898 C-112.19637695 111.49936523 -111.34172852 112.24702148 -110.46118164 113.01733398 C-108.14373842 114.69295019 -108.14373842 114.69295019 -105.71118164 114.52124023 C-101.71973937 113.02659686 -98.08848817 110.99847943 -94.36352539 108.93920898 C-75.23331352 98.67175727 -53.50932952 88.92814233 -31.98852539 85.50170898 C-31.93254684 84.65281601 -31.8765683 83.80392303 -31.81889343 82.92930603 C-31.28785502 74.9103008 -30.74473793 66.89222343 -30.18820477 58.87494564 C-29.90254038 54.75363101 -29.62147591 50.63211203 -29.35107422 46.50976562 C-29.08971059 42.52783858 -28.81606782 38.54692501 -28.53406715 34.56640816 C-28.42886884 33.05135106 -28.32801968 31.53598521 -28.23169518 30.02033806 C-28.09550099 27.88935682 -27.94355853 25.76002104 -27.78808594 23.63037109 C-27.70592331 22.42013779 -27.62376068 21.20990448 -27.53910828 19.96299744 C-26.60171416 14.06998568 -24.37097858 8.65942098 -19.98852539 4.50170898 C-13.36999261 1.04566536 -7.39017336 -0.08247674 0 0 Z " fill="#0049AD" transform="translate(419.988525390625,90.498291015625)"/>
<path d="M0 0 C40.92 0 81.84 0 124 0 C124 9.9 124 19.8 124 30 C134.23 30 144.46 30 155 30 C155 50.79 155 71.58 155 93 C144.77 93 134.54 93 124 93 C124 103.23 124 113.46 124 124 C113.77 124 103.54 124 93 124 C93 133.9 93 143.8 93 154 C103.23 154 113.46 154 124 154 C124 164.23 124 174.46 124 185 C134.23 185 144.46 185 155 185 C155 195.23 155 205.46 155 216 C144.44 216 133.88 216 123 216 C123 206.1 123 196.2 123 186 C112.77 186 102.54 186 92 186 C92 175.77 92 165.54 92 155 C82.1 155 72.2 155 62 155 C62 144.77 62 134.54 62 124 C52.1 124 42.2 124 32 124 C32 154.36 32 184.72 32 216 C21.44 216 10.88 216 0 216 C0 144.72 0 73.44 0 0 Z M32 31 C32 51.13 32 71.26 32 92 C62.03 92 92.06 92 123 92 C123 71.87 123 51.74 123 31 C92.97 31 62.94 31 32 31 Z " fill="#EB00C9" transform="translate(1448,349)"/>
<path d="M0 0 C51.48 0 102.96 0 156 0 C156 10.23 156 20.46 156 31 C115.08 31 74.16 31 32 31 C32 51.13 32 71.26 32 92 C62.69 92 93.38 92 125 92 C125 102.56 125 113.12 125 124 C94.31 124 63.62 124 32 124 C32 144.13 32 164.26 32 185 C72.92 185 113.84 185 156 185 C156 195.23 156 205.46 156 216 C104.52 216 53.04 216 0 216 C0 144.72 0 73.44 0 0 Z " fill="#EB00C9" transform="translate(1166,349)"/>
<path d="M0 0 C10.56 0 21.12 0 32 0 C32 30.36 32 60.72 32 92 C62.03 92 92.06 92 123 92 C123 61.64 123 31.28 123 0 C133.56 0 144.12 0 155 0 C155 71.28 155 142.56 155 216 C144.44 216 133.88 216 123 216 C123 185.64 123 155.28 123 124 C92.97 124 62.94 124 32 124 C32 154.36 32 184.72 32 216 C21.44 216 10.88 216 0 216 C0 144.72 0 73.44 0 0 Z " fill="#EC00CA" transform="translate(885,349)"/>
<path d="M0 0 C40.92 0 81.84 0 124 0 C124 9.9 124 19.8 124 30 C134.23 30 144.46 30 155 30 C155 50.79 155 71.58 155 93 C144.77 93 134.54 93 124 93 C124 103.23 124 113.46 124 124 C93.64 124 63.28 124 32 124 C32 154.36 32 184.72 32 216 C21.44 216 10.88 216 0 216 C0 144.72 0 73.44 0 0 Z M32 31 C32 51.13 32 71.26 32 92 C62.03 92 92.06 92 123 92 C123 71.87 123 51.74 123 31 C92.97 31 62.94 31 32 31 Z " fill="#EB00CA" transform="translate(604,349)"/>
<path d="M0 0 C10.56 0 21.12 0 32 0 C32 71.28 32 142.56 32 216 C21.44 216 10.88 216 0 216 C0 144.72 0 73.44 0 0 Z " fill="#EC00CB" transform="translate(446,349)"/>
<path d="M0 0 C2.375 1.0625 2.375 1.0625 4 3 C5.56535571 9.75999079 4.48561719 13.4585513 1.32495117 19.5012207 C0.92175659 20.31067642 0.51856201 21.12013214 0.10314941 21.95411682 C-1.23137977 24.62131161 -2.59378172 27.27316707 -3.95703125 29.92578125 C-4.90027193 31.79611673 -5.84178694 33.66732339 -6.78166199 35.53935242 C-9.26393285 40.47141444 -11.77027924 45.39085565 -14.28161621 50.3081665 C-16.79869113 55.24788338 -19.29150822 60.19980145 -21.78710938 65.15039062 C-28.82383265 79.08798745 -35.87445762 93.01550355 -43.17504883 106.81713867 C-47.12590569 114.28901974 -50.94854893 121.81386371 -54.67611313 129.39932251 C-55.65751321 131.39448103 -56.64346223 133.38733579 -57.63064575 135.37963867 C-60.42826358 141.02576801 -63.22385788 146.67283888 -66.00292969 152.328125 C-67.72405429 155.8297134 -69.45488165 159.32635251 -71.19223404 162.81991577 C-71.84572353 164.13859347 -72.49559155 165.45907262 -73.14165878 166.78140259 C-74.03813727 168.61533645 -74.94821466 170.44260391 -75.85888672 172.26953125 C-76.37055389 173.30698486 -76.88222107 174.34443848 -77.40939331 175.41333008 C-79.05513536 178.089662 -80.28748324 179.4476135 -83 181 C-87.95095859 181.62869315 -89.86686529 181.77903011 -94 178.9375 C-96.57017196 175.16255994 -96.45385773 173.53077353 -96 169 C-94.85511845 165.75664404 -93.32316011 162.75020335 -91.75244141 159.69433594 C-91.07427872 158.33406784 -91.07427872 158.33406784 -90.38241577 156.94631958 C-88.88542823 153.95212307 -87.36874163 150.96838416 -85.8515625 147.984375 C-84.79817757 145.8881401 -83.745981 143.79130766 -82.69491577 141.69390869 C-79.91971141 136.16455105 -77.12748019 130.64395989 -74.33190918 125.12487793 C-72.0787933 120.67004744 -69.83730581 116.20942172 -67.59658241 111.74834824 C-50.02045034 76.75673822 -50.02045034 76.75673822 -41.42195892 60.50620556 C-38.07459391 54.17076054 -34.85337059 47.7796406 -31.6953125 41.34765625 C-30.6071098 39.14892075 -29.51855892 36.95035754 -28.4296875 34.75195312 C-26.76067198 31.3765302 -25.09424373 27.99990869 -23.43359375 24.62036133 C-21.79888911 21.29666734 -20.15419306 17.97807861 -18.5078125 14.66015625 C-18.0129837 13.64671646 -17.51815491 12.63327667 -17.0083313 11.58912659 C-16.54039154 10.64971725 -16.07245178 9.71030792 -15.59033203 8.74243164 C-15.18525421 7.92037735 -14.78017639 7.09832306 -14.36282349 6.25135803 C-10.44573372 -0.21959848 -7.29066214 -1.50841286 0 0 Z " fill="#004AAC" transform="translate(1538,107)"/>
<path d="M0 0 C3.75514634 2.0408404 4.77457968 3.28395898 6.0625 7.375 C5.9874643 11.72707066 4.93536509 13.92731584 2 17 C-1.57655467 19.65221693 -5.36437483 21.91048296 -9.1875 24.1875 C-11.3743439 25.52107669 -13.56053926 26.85571745 -15.74609375 28.19140625 C-16.81714355 28.84125488 -17.88819336 29.49110352 -18.99169922 30.16064453 C-22.95459682 32.583666 -26.8599169 35.0872471 -30.75 37.625 C-31.40452148 38.04974609 -32.05904297 38.47449219 -32.73339844 38.91210938 C-36.63779793 41.44911323 -40.52902165 44.00579105 -44.41796875 46.56640625 C-45.7942041 47.46915283 -45.7942041 47.46915283 -47.19824219 48.39013672 C-48.99449651 49.56874851 -50.78821493 50.75123623 -52.57910156 51.93798828 C-53.38702148 52.46763184 -54.19494141 52.99727539 -55.02734375 53.54296875 C-56.10616821 54.2548938 -56.10616821 54.2548938 -57.20678711 54.98120117 C-59 56 -59 56 -61 56 C-60.27401611 56.72525879 -59.54803223 57.45051758 -58.80004883 58.19775391 C-56.26115351 60.73864156 -53.72905758 63.28603872 -51.19921875 65.8359375 C-49.36205135 67.68236349 -47.52480955 69.52871546 -45.6875 71.375 C-44.77548828 72.29539062 -43.86347656 73.21578125 -42.92382812 74.1640625 C-38.38479242 78.71936715 -33.80082676 83.12182708 -28.91870117 87.30615234 C-25.39330639 90.41840441 -22.11581261 93.78059355 -18.8125 97.125 C-18.12736328 97.81464844 -17.44222656 98.50429687 -16.73632812 99.21484375 C-15.41647034 100.54359375 -14.09757004 101.87329575 -12.77978516 103.20410156 C-10.52733049 105.47694882 -8.26480228 107.73946289 -6 110 C-5 111 -5 111 -4.625 114.75 C-4.68087372 118.20175452 -4.99278885 118.98951105 -7.0625 122 C-10.78198762 124.5324171 -12.576184 124.69849726 -17 124 C-21.16300569 121.51773903 -24.51560285 118.71598323 -27.8984375 115.26171875 C-29.23648437 113.90723633 -29.23648437 113.90723633 -30.6015625 112.52539062 C-31.51679687 111.58888672 -32.43203125 110.65238281 -33.375 109.6875 C-38.80055502 104.1579038 -44.20352401 98.71939989 -50.09228516 93.68286133 C-54.27110294 89.99658145 -58.10008222 85.93702555 -62 81.9609375 C-65.93669836 77.97810596 -69.97671566 74.2045884 -74.21923828 70.54931641 C-76.37482412 68.67389171 -78.42143933 66.71167359 -80.4375 64.6875 C-81.09621094 64.03136719 -81.75492188 63.37523437 -82.43359375 62.69921875 C-84.71737144 60.22180405 -84.98810502 59.12608684 -85.3125 55.6875 C-84.94040218 51.29674573 -83.9414997 50.18428122 -81 47 C-78.60009766 45.18579102 -78.60009766 45.18579102 -75.9140625 43.50390625 C-74.91246094 42.87033203 -73.91085937 42.23675781 -72.87890625 41.58398438 C-71.80511719 40.91689453 -70.73132812 40.24980469 -69.625 39.5625 C-68.4955404 38.85179009 -67.36664193 38.14018771 -66.23828125 37.42773438 C-63.93525913 35.97507209 -61.62951172 34.52690351 -59.32128906 33.08251953 C-54.53188786 30.07946218 -49.76631527 27.03950413 -45 24 C-43.22400767 22.87101614 -41.44796523 21.7421111 -39.671875 20.61328125 C-35.48962396 17.95205201 -31.31365094 15.28113267 -27.140625 12.60546875 C-26.56509888 12.23656525 -25.98957275 11.86766174 -25.39660645 11.48757935 C-22.57866729 9.68117373 -19.76146339 7.87364699 -16.9453125 6.06445312 C-15.93726563 5.41798828 -14.92921875 4.77152344 -13.890625 4.10546875 C-12.99375977 3.52949951 -12.09689453 2.95353027 -11.17285156 2.36010742 C-7.21956065 -0.11447501 -4.71941244 -0.39995021 0 0 Z " fill="#004AAC" transform="translate(1457,131)"/>
<path d="M0 0 C3.15300031 1.84786494 5.48142214 4.37433975 8 7 C9.59587198 8.60478453 11.19876711 10.20237676 12.80175781 11.80004883 C13.90042428 12.89982092 14.99390378 14.00480993 16.08105469 15.1159668 C18.91467164 17.99921157 21.80989713 20.73786626 24.875 23.375 C30.07589534 27.86917081 34.83127775 32.78266714 39.64453125 37.68359375 C43.66646279 41.74964154 47.77734232 45.61290296 52.11181641 49.34326172 C55.00594969 51.88264476 57.72640608 54.580471 60.4375 57.3125 C60.96537109 57.83650391 61.49324219 58.36050781 62.03710938 58.90039062 C66.85646652 63.73212096 66.85646652 63.73212096 67.375 68.3125 C66.91836379 72.80275606 65.32666841 74.27407651 62 77 C59.15496359 79.0531913 56.21371104 80.93595149 53.25 82.8125 C52.38165527 83.36945557 51.51331055 83.92641113 50.61865234 84.50024414 C48.7374563 85.70574325 46.85440948 86.90835804 44.96972656 88.10839844 C41.94174418 90.03710672 38.9194769 91.9744996 35.8984375 93.9140625 C30.65108118 97.28115033 25.39813006 100.63937361 20.14257812 103.99365234 C17.0157126 105.98996845 13.89060918 107.98902179 10.765625 109.98828125 C8.80218109 111.24234056 6.83864355 112.49625332 4.875 113.75 C3.98119629 114.32226318 3.08739258 114.89452637 2.16650391 115.48413086 C-12.65057112 124.93033546 -12.65057112 124.93033546 -18 124 C-20.88633687 122.46062034 -22.51183095 121.26762128 -23.70703125 118.1640625 C-24.48273391 114.37979347 -24.48273391 114.37979347 -24 112 C-20.38605029 106.68243298 -16.01416015 103.77392679 -10.5625 100.5 C-8.85375849 99.44727684 -7.14544208 98.39386342 -5.4375 97.33984375 C-4.54675781 96.79440918 -3.65601563 96.24897461 -2.73828125 95.68701172 C1.85061049 92.85986818 6.39313633 89.96048353 10.9375 87.0625 C11.84443604 86.4854834 12.75137207 85.9084668 13.68579102 85.31396484 C23.16631689 79.27471783 32.58919117 73.14715887 42 67 C39.12734416 63.05009823 35.85420256 60.0644983 32.171875 56.9140625 C27.67479421 52.95080785 23.55350577 48.59091025 19.35546875 44.31640625 C15.39224586 40.30971108 11.34699058 36.4939513 7.08007812 32.81347656 C3.11620153 29.35764612 -0.70552523 25.76497662 -4.5 22.125 C-5.32242187 21.37347656 -6.14484375 20.62195313 -6.9921875 19.84765625 C-13.52430129 13.52170552 -13.52430129 13.52170552 -13.62109375 8.08984375 C-13.3866332 5.2646728 -12.97888818 3.96236589 -11.5625 1.4375 C-7.63764256 -0.76424929 -4.37862585 -1.03627478 0 0 Z " fill="#004AAC" transform="translate(1547,140)"/>
</svg>
